<svg width="59" height="68" viewBox="0 0 59 68" fill="none" xmlns="http://www.w3.org/2000/svg">
<g clip-path="url(#clip0_329_378)">
<rect width="58.4166" height="67.9819" rx="9.40552" fill="white"/>
<g clip-path="url(#clip1_329_378)">
<circle cx="-0.378083" cy="30.7197" r="14.7459" fill="#0B8FAC"/>
</g>
<g clip-path="url(#clip2_329_378)">
<circle cx="56.29" cy="30.0604" r="11.7684" transform="rotate(-180 56.29 30.0604)" fill="#0B8FAC"/>
</g>
<circle cx="12.0524" cy="18.4367" r="2.31587" fill="#BAC6C7"/>
<circle cx="46.1757" cy="42.2571" r="2.31587" fill="#BAC6C7"/>
<g clip-path="url(#clip3_329_378)">
<circle cx="7.65675" cy="38.0527" r="7.56202" fill="#0B1F51"/>
</g>
<g clip-path="url(#clip4_329_378)">
<circle cx="50.7603" cy="22.9277" r="7.56202" fill="#0B8FAC"/>
</g>
<g clip-path="url(#clip5_329_378)">
<circle cx="15.2188" cy="53.1749" r="7.56202" fill="#BAC6C7"/>
</g>
<g clip-path="url(#clip6_329_378)">
<circle cx="36.9592" cy="56.4841" r="7.56202" fill="#BAC6C7"/>
</g>
<g clip-path="url(#clip7_329_378)">
<circle cx="22.2184" cy="60.1657" r="6.80923" transform="rotate(-90 22.2184 60.1657)" fill="#62A3BE"/>
</g>
<g clip-path="url(#clip8_329_378)">
<circle cx="43.7654" cy="53.2708" r="7.56202" fill="#0B1F51"/>
</g>
<g clip-path="url(#clip9_329_378)">
<path d="M45.2235 49.2091C42.3049 52.4303 42.6361 57.9207 45.8572 60.8394L49.248 60.8394L50.1933 59.8405L51.1858 58.7535L53.0291 56.4376L55.3449 52.4203L56.8573 48.9228C53.6362 46.0042 48.1422 45.988 45.2235 49.2091Z" fill="#0B8FAC"/>
<path d="M46.2393 60.7388C46.2393 54.9441 50.8342 50.152 56.3859 50.152" stroke="#0B8FAC" stroke-width="0.472626"/>
<path d="M48.0193 60.7374C48.0193 56.0389 51.3626 52.2301 55.4868 52.2301" stroke="#0B1F51" stroke-width="0.472626"/>
</g>
<g clip-path="url(#clip10_329_378)">
<circle cx="50.4763" cy="7.80358" r="7.56202" transform="rotate(-180 50.4763 7.80358)" fill="#BAC6C7"/>
</g>
<g clip-path="url(#clip11_329_378)">
<circle cx="50.4763" cy="0.240838" r="7.56202" transform="rotate(-180 50.4763 0.240838)" fill="#0B1F51"/>
</g>
<g clip-path="url(#clip12_329_378)">
<path d="M21.9775 60.6438C25.6579 60.6438 28.6415 57.5121 28.6415 53.649C28.6415 52.3749 28.317 51.1804 27.75 50.1515L24.8605 49.5844L21.9775 48.3555L19.8034 47.0348C17.1905 47.9809 15.3135 50.5848 15.3135 53.649C15.3135 57.5121 18.2971 60.6438 21.9775 60.6438Z" fill="#BAC6C7"/>
</g>
<circle cx="33.9824" cy="64.5138" r="2.31587" fill="#BAC6C7"/>
<path d="M0.0947266 3.05426H14.7735C22.3758 3.05426 27.5773 9.56361 27.5773 15.9335C27.5773 17.2818 28.7205 17.9793 29.7265 17.9793C36.9833 17.9793 42.3475 24.9856 42.3475 31.0445C42.3475 35.4615 38.5978 43.9702 30.0009 43.9702C28.9492 43.9702 27.7145 44.6211 27.7145 45.9695V67.9618" stroke="#0B8FAC" stroke-width="0.457281"/>
<path d="M0.186279 14.2612H14.8193C15.9488 14.2813 16.6484 15.0052 16.6484 16.0746C16.6484 23.5603 22.5016 29.0003 29.7267 29.1862C30.8699 29.2157 31.3271 30.3021 31.3271 30.9996C31.3271 32.162 30.2754 32.8129 29.7267 32.8129C22.4559 32.8129 16.7856 38.8108 16.7856 45.9711V65.3086" stroke="#0B8FAC" stroke-width="0.457281"/>
<path d="M0.0947266 12.446H14.8192C16.8769 12.446 18.4774 13.9338 18.4774 16.0261C18.4774 24.0781 25.1537 27.0682 29.7266 27.185C31.4185 27.2282 33.1562 28.7194 33.2019 30.9976C33.2458 33.1829 31.327 34.7173 29.7266 34.7173C24.9708 34.7173 18.6146 38.2207 18.6146 45.9227V66.0505" stroke="#0B8FAC" stroke-width="0.457281"/>
<path d="M0.0947266 10.586H14.8192C17.2885 10.586 20.3066 12.4923 20.3066 16.026C20.3066 22.0239 25.2452 25.418 29.7266 25.418C33.1104 25.418 35.1348 28.3977 34.9853 30.951C34.7567 34.8566 31.9672 36.5769 29.7266 36.5769C24.6688 36.5769 20.4437 40.2036 20.4437 46.0155V66.6548" stroke="#0B8FAC" stroke-width="0.457281"/>
<path d="M0.140625 8.72607H14.8651C19.2093 8.72607 22.1359 12.4922 22.1359 16.0258C22.1359 20.1639 25.2454 23.5581 29.7267 23.5581C33.1106 23.5581 36.9975 26.7198 36.906 30.9044C36.8206 34.8159 33.9337 38.2506 29.7267 38.4366C24.6737 38.66 22.273 42.4352 22.273 46.0619V67.1677" stroke="#0B8FAC" stroke-width="0.457281"/>
<path d="M0.186279 6.77423H14.8193C19.6207 6.77423 24.1478 11.2378 24.0106 16.0268C23.8877 20.3198 27.6689 21.6528 29.6809 21.6528C34.5281 21.6528 38.8019 26.0698 38.6894 30.9983C38.5967 35.058 36.002 40.2974 29.6809 40.2974C26.983 40.2974 24.1021 42.2058 24.1021 45.9698L24.1896 67.5886" stroke="#0B8FAC" stroke-width="0.457281"/>
<path d="M0.140625 5.00726H14.7736C21.8158 5.00726 25.8398 10.9122 25.8398 16.1197C25.8398 18.3514 27.5858 19.8393 29.7267 19.8393C36.4488 19.8393 40.4728 25.8145 40.4728 30.9052C40.4728 36.3916 36.4488 42.1106 29.681 42.1106C26.8916 42.1106 25.9313 44.2029 25.9313 46.0162V67.7745" stroke="#0B8FAC" stroke-width="0.457281"/>
<ellipse cx="10.9777" cy="6.86805" rx="1.00602" ry="1.0229" fill="#0B1F51"/>
<ellipse cx="6.49674" cy="12.448" rx="1.00602" ry="1.0229" fill="#0B1F51"/>
<ellipse cx="2.83854" cy="12.448" rx="1.00602" ry="1.0229" fill="#0B1F51"/>
<ellipse cx="18.935" cy="12.448" rx="1.00602" ry="1.0229" fill="#0B1F51"/>
<ellipse cx="36.3112" cy="22.1187" rx="1.00602" ry="1.0229" fill="#0B1F51"/>
<ellipse cx="35.0304" cy="30.9536" rx="1.00602" ry="1.0229" fill="#0B1F51"/>
<ellipse cx="33.7499" cy="34.4853" rx="1.00602" ry="1.0229" fill="#0B1F51"/>
<ellipse cx="20.4889" cy="49.5511" rx="1.00602" ry="1.0229" fill="#0B1F51"/>
<ellipse cx="20.4889" cy="53.7349" rx="1.00602" ry="1.0229" fill="#0B1F51"/>
<path d="M0.182861 15.2186H15.3133M58.4232 15.2186H43.1037" stroke="#B7C4D4" stroke-width="0.18905"/>
<path d="M0.182861 30.39H15.2865M58.3286 30.39H43.1037" stroke="#B7C4D4" stroke-width="0.18905"/>
<path d="M0.939453 45.5615H18.5275M57.7619 45.5615H40.032" stroke="#B7C4D4" stroke-width="0.18905"/>
<path d="M9.54077 60.7329H49.2541" stroke="#B7C4D4" stroke-width="0.18905"/>
<path d="M15.3135 0L15.3135 64.5607" stroke="#B7C4D4" stroke-width="0.18905"/>
<path d="M43.104 0V64.7498" stroke="#B7C4D4" stroke-width="0.18905"/>
<path d="M29.3032 50.0989L29.3032 67.9641" stroke="#B7C4D4" stroke-width="0.18905"/>
<path d="M-0.0058588 0.0466766L15.3136 0.0342931M58.4644 -0.00058775L43.104 0.0118288" stroke="#B7C4D4" stroke-width="0.18905"/>
<path d="M15.3124 0.0952759L15.3124 36.7095L15.4023 38.3792L15.6943 40.1949C16.3682 43.0958 18.8634 46.4764 20.6136 47.5203C22.433 48.6056 25.0611 50.2543 29.823 50.0874C34.585 49.9204 36.8313 48.017 37.7971 47.5203C39.2796 46.7579 41.9526 43.722 42.6938 40.2366C42.6938 40.2366 43.0083 38.9218 43.0083 38.4627C43.0083 38.0035 43.0083 33.579 43.0083 33.579V26.8588V0.0952759" stroke="#B7C4D4" stroke-width="0.18905"/>
<path d="M0.0944656 0V37.6211L0.283678 41.4021L0.898092 45.5139C2.31597 52.0834 7.5661 59.7391 11.2486 62.1031C15.0769 64.5607 20.6066 68.2945 30.6263 67.9164C40.646 67.5383 45.3724 63.2279 47.4045 62.1031C50.5238 60.3765 56.148 53.5013 57.7077 45.6084C57.7077 45.6084 58.3694 42.6309 58.3694 41.5911C58.3694 40.5513 58.3694 30.5317 58.3694 30.5317V15.3131V0" stroke="#B7C4D4" stroke-width="0.18905"/>
</g>
<defs>
<clipPath id="clip0_329_378">
<rect width="58.4166" height="67.9819" rx="9.40552" fill="white"/>
</clipPath>
<clipPath id="clip1_329_378">
<rect width="15.3131" height="15.124" fill="white" transform="translate(0 15.2185)"/>
</clipPath>
<clipPath id="clip2_329_378">
<rect width="15.3131" height="15.124" fill="white" transform="matrix(-1 0 0 -1 58.4167 45.5615)"/>
</clipPath>
<clipPath id="clip3_329_378">
<rect width="15.3131" height="15.2186" fill="white" transform="translate(0 30.3015)"/>
</clipPath>
<clipPath id="clip4_329_378">
<rect width="15.3131" height="15.2186" fill="white" transform="translate(43.1033 15.176)"/>
</clipPath>
<clipPath id="clip5_329_378">
<rect width="15.3131" height="15.2186" fill="white" transform="translate(0 45.613)"/>
</clipPath>
<clipPath id="clip6_329_378">
<rect width="6.90034" height="12.0047" fill="white" transform="translate(29.3972 48.9219)"/>
</clipPath>
<clipPath id="clip7_329_378">
<rect width="6.21342" height="13.7036" fill="white" transform="matrix(0 -1 1 0 15.4092 66.9752)"/>
</clipPath>
<clipPath id="clip8_329_378">
<rect width="6.90034" height="15.2186" fill="white" transform="translate(36.2034 45.7083)"/>
</clipPath>
<clipPath id="clip9_329_378">
<rect width="11.0431" height="16.7392" fill="white" transform="translate(50.5078 43.3753) rotate(42.1794)"/>
</clipPath>
<clipPath id="clip10_329_378">
<rect width="14.8405" height="7.56202" fill="white" transform="matrix(-1 0 0 -1 58.0383 15.3654)"/>
</clipPath>
<clipPath id="clip11_329_378">
<rect width="14.8405" height="7.56202" fill="white" transform="matrix(-1 0 0 -1 58.0383 7.80261)"/>
</clipPath>
<clipPath id="clip12_329_378">
<rect width="13.9897" height="15.0295" fill="white" transform="translate(15.3135 45.7083)"/>
</clipPath>
</defs>
</svg>
