<svg width="25" height="25" viewBox="0 0 25 25" fill="none" xmlns="http://www.w3.org/2000/svg">
<g clip-path="url(#clip0_362_476)">
<path d="M12.7348 24.4922C19.3153 24.4922 24.6498 19.1577 24.6498 12.5772C24.6498 5.99676 19.3153 0.662231 12.7348 0.662231C6.15435 0.662231 0.819824 5.99676 0.819824 12.5772C0.819824 19.1577 6.15435 24.4922 12.7348 24.4922Z" fill="#F0F0F0"/>
<path d="M24.6496 12.5772C24.6496 7.4542 21.4161 3.08684 16.8789 1.40334V23.7512C21.4161 22.0676 24.6496 17.7003 24.6496 12.5772V12.5772Z" fill="#D80027"/>
<path d="M0.819824 12.5772C0.819824 17.7003 4.0533 22.0676 8.5905 23.7511V1.40334C4.0533 3.08684 0.819824 7.4542 0.819824 12.5772Z" fill="#0052B4"/>
</g>
<defs>
<clipPath id="clip0_362_476">
<rect width="23.83" height="23.83" fill="white" transform="translate(0.819824 0.662231)"/>
</clipPath>
</defs>
</svg>
