<svg width="25" height="25" viewBox="0 0 25 25" fill="none" xmlns="http://www.w3.org/2000/svg">
<path d="M12.459 1.40564C10.3553 1.40732 8.29474 2.00304 6.51465 3.12422H18.3871C16.6117 2.00598 14.5572 1.41038 12.459 1.40564Z" fill="#B22234"/>
<path d="M6.51486 3.1239C5.74803 3.60934 5.04322 4.18643 4.41602 4.84239H20.5156C19.8793 4.18453 19.1645 3.60738 18.3873 3.1239H6.51486Z" fill="white"/>
<path d="M4.41605 4.84314C3.90905 5.37025 3.45503 5.94587 3.06055 6.56172H21.8708C21.4764 5.94589 21.0225 5.37026 20.5156 4.84314H4.41605Z" fill="#B22234"/>
<path d="M3.06049 6.56134C2.70791 7.10664 2.40356 7.68165 2.15088 8.27983H22.7593C22.5134 7.68238 22.2161 7.1074 21.8707 6.56134H3.06049Z" fill="white"/>
<path d="M2.15061 8.2796C1.92189 8.83675 1.7386 9.41149 1.60254 9.99819H23.3145C23.176 9.41127 22.9903 8.83653 22.7591 8.2796H2.15061Z" fill="#B22234"/>
<path d="M1.60272 9.99884C1.46778 10.5638 1.37712 11.1384 1.33154 11.7174H23.5933C23.5453 11.1382 23.4521 10.5636 23.3147 9.99884H1.60272Z" fill="white"/>
<path d="M1.33157 11.7171C1.30621 12.0029 1.29187 12.2895 1.28857 12.5763C1.28966 12.8631 1.30179 13.1498 1.32494 13.4356H23.5867C23.6121 13.1498 23.6264 12.8632 23.6297 12.5763C23.6286 12.2896 23.6165 12.0029 23.5933 11.7171H1.33157Z" fill="#B22234"/>
<path d="M1.3252 13.4354C1.37322 14.0146 1.46638 14.5892 1.60382 15.1539H23.3158C23.4507 14.589 23.5414 14.0144 23.587 13.4354H1.3252Z" fill="white"/>
<path d="M1.60352 15.1536C1.74197 15.7405 1.92772 16.3152 2.15895 16.8721H22.7674C22.9961 16.315 23.1794 15.7403 23.3155 15.1536H1.60352Z" fill="#B22234"/>
<path d="M2.15918 16.8728C2.40513 17.4703 2.70244 18.0452 3.04779 18.5913H21.858C22.2106 18.046 22.515 17.471 22.7676 16.8728H2.15918Z" fill="white"/>
<path d="M3.04736 18.5911C3.44173 19.2069 3.89562 19.7825 4.4025 20.3096H20.5021C21.0091 19.7825 21.4631 19.2069 21.8576 18.5911H3.04736Z" fill="#B22234"/>
<path d="M4.40283 20.3093C5.03918 20.9672 5.75397 21.5443 6.53113 22.0278H18.4036C19.1704 21.5424 19.8752 20.9653 20.5024 20.3093H4.40283Z" fill="white"/>
<path d="M6.53125 22.0285C8.30666 23.1467 10.3611 23.7423 12.4593 23.7471C14.5631 23.7454 16.6236 23.1497 18.4037 22.0285H6.53125Z" fill="#B22234"/>
<path d="M12.4591 1.40564C9.49652 1.40564 6.65524 2.58253 4.56036 4.67742C2.46547 6.77231 1.28857 9.61358 1.28857 12.5762C1.29004 12.8714 1.3032 13.1664 1.32803 13.4605H13.3435V1.44991C13.0494 1.42347 12.7544 1.4087 12.4591 1.40564Z" fill="#3C3B6E"/>
<path d="M8.46112 2.15876C8.31228 2.2131 8.16462 2.27059 8.01823 2.33121L8.1814 2.45521L8.07104 2.81183L8.3634 2.59357L8.6643 2.82229L8.5513 2.45321L8.8522 2.22858H8.48248L8.46112 2.15876ZM10.3559 1.85364L10.2399 2.22855H9.87144L10.1697 2.45523L10.0593 2.81181L10.3516 2.59356L10.6526 2.82227L10.5396 2.45325L10.8404 2.22855H10.4708L10.3559 1.85364ZM12.3442 1.85364L12.2281 2.22855H11.8597L12.1579 2.45523L12.0475 2.81181L12.3399 2.59356L12.6408 2.82227L12.5278 2.45325L12.8287 2.22855H12.459L12.3442 1.85364ZM5.58703 3.78598C5.5345 3.82516 5.48232 3.8648 5.43049 3.90489L5.68193 4.09606L5.58703 3.78598ZM7.37357 3.12741L7.2575 3.50232H6.88907L7.18731 3.729L7.07692 4.08558L7.36926 3.86733L7.67019 4.09604L7.55718 3.72702L7.85807 3.50232H7.48838L7.37357 3.12741ZM9.36182 3.12741L9.24575 3.50232H8.87732L9.17556 3.729L9.06517 4.08558L9.35751 3.86733L9.65843 4.09604L9.54543 3.72702L9.84632 3.50232H9.47663L9.36182 3.12741ZM11.3501 3.12741L11.234 3.50232H10.8656L11.1638 3.729L11.0534 4.08558L11.3457 3.86733L11.6467 4.09604L11.5337 3.72702L11.8346 3.50232H11.4649L11.3501 3.12741ZM4.49679 4.74604C4.38661 4.86268 4.27895 4.98167 4.17389 5.10294L4.09453 5.3593L4.38688 5.14103L4.68778 5.36975L4.57479 5.00076L4.87569 4.77604H4.50597L4.49679 4.74604ZM6.37945 4.40113L6.26338 4.77604H5.89495L6.19318 5.00272L6.0828 5.3593L6.37513 5.14105L6.67606 5.36976L6.56305 5.00074L6.86395 4.77604H6.49426L6.37945 4.40113ZM8.36769 4.40113L8.25163 4.77604H7.8832L8.18143 5.00272L8.07104 5.3593L8.36338 5.14105L8.6643 5.36976L8.5513 5.00074L8.85219 4.77604H8.4825L8.36769 4.40113ZM10.3559 4.40113L10.2399 4.77604H9.87144L10.1697 5.00272L10.0593 5.3593L10.3516 5.14105L10.6526 5.36976L10.5396 5.00074L10.8404 4.77604H10.4708L10.3559 4.40113ZM12.3442 4.40113L12.2281 4.77604H11.8597L12.1579 5.00272L12.0475 5.3593L12.3399 5.14105L12.6408 5.36976L12.5278 5.00074L12.8287 4.77604H12.459L12.3442 4.40113ZM3.48146 5.95037C3.37853 6.08754 3.27878 6.22705 3.18228 6.36881L3.10047 6.63308L3.39273 6.41481L3.69372 6.64353L3.58073 6.27454L3.88154 6.04982H3.51191L3.48146 5.95037ZM5.38532 5.6749L5.26926 6.04981H4.90083L5.19906 6.27649L5.08867 6.63307L5.38101 6.41482L5.68194 6.64353L5.56893 6.27451L5.86982 6.04981H5.50013L5.38532 5.6749ZM7.37357 5.6749L7.2575 6.04981H6.88907L7.18731 6.27649L7.07692 6.63307L7.36926 6.41482L7.67019 6.64353L7.55718 6.27451L7.85807 6.04981H7.48838L7.37357 5.6749ZM9.36182 5.6749L9.24575 6.04981H8.87732L9.17556 6.27649L9.06517 6.63307L9.35751 6.41482L9.65843 6.64353L9.54543 6.27451L9.84632 6.04981H9.47663L9.36182 5.6749ZM11.3501 5.6749L11.234 6.04981H10.8656L11.1638 6.27649L11.0534 6.63307L11.3457 6.41482L11.6467 6.64353L11.5337 6.27451L11.8346 6.04981H11.4649L11.3501 5.6749ZM2.61021 7.3236C2.54345 7.44872 2.47908 7.57511 2.41713 7.70268L2.69957 7.91731L2.58658 7.54832L2.88748 7.3236H2.61021ZM4.3912 6.94867L4.27514 7.32358H3.9067L4.20494 7.55026L4.09455 7.90684L4.38689 7.68859L4.68781 7.9173L4.57481 7.54828L4.8757 7.32358H4.50601L4.3912 6.94867ZM6.37945 6.94867L6.26338 7.32358H5.89495L6.19318 7.55026L6.0828 7.90684L6.37513 7.68859L6.67606 7.9173L6.56305 7.54828L6.86395 7.32358H6.49426L6.37945 6.94867ZM8.36769 6.94867L8.25163 7.32358H7.8832L8.18143 7.55026L8.07104 7.90684L8.36338 7.68859L8.6643 7.9173L8.5513 7.54828L8.85219 7.32358H8.4825L8.36769 6.94867ZM10.3559 6.94867L10.2399 7.32358H9.87144L10.1697 7.55026L10.0593 7.90684L10.3516 7.68859L10.6526 7.9173L10.5396 7.54828L10.8404 7.32358H10.4708L10.3559 6.94867ZM12.3442 6.94867L12.2281 7.32358H11.8597L12.1579 7.55026L12.0475 7.90684L12.3399 7.68859L12.6408 7.9173L12.5278 7.54828L12.8287 7.32358H12.459L12.3442 6.94867ZM3.39708 8.22239L3.28102 8.5973H2.91258L3.21082 8.82398L3.10043 9.18056L3.39276 8.96231L3.69369 9.19102L3.58069 8.822L3.88158 8.5973H3.51189L3.39708 8.22239ZM5.38532 8.22239L5.26926 8.5973H4.90083L5.19906 8.82398L5.08867 9.18056L5.38101 8.96231L5.68194 9.19102L5.56893 8.822L5.86982 8.5973H5.50013L5.38532 8.22239ZM7.37357 8.22239L7.2575 8.5973H6.88907L7.18731 8.82398L7.07692 9.18056L7.36926 8.96231L7.67019 9.19102L7.55718 8.822L7.85807 8.5973H7.48838L7.37357 8.22239ZM9.36182 8.22239L9.24575 8.5973H8.87732L9.17556 8.82398L9.06517 9.18056L9.35751 8.96231L9.65843 9.19102L9.54543 8.822L9.84632 8.5973H9.47663L9.36182 8.22239ZM11.3501 8.22239L11.234 8.5973H10.8656L11.1638 8.82398L11.0534 9.18056L11.3457 8.96231L11.6467 9.19102L11.5337 8.822L11.8346 8.5973H11.4649L11.3501 8.22239ZM2.40296 9.49616L2.28689 9.87107H1.91846L2.21669 10.0978L2.10631 10.4543L2.39864 10.2361L2.69957 10.4648L2.58657 10.0958L2.88746 9.87107H2.51777L2.40296 9.49616ZM4.3912 9.49616L4.27514 9.87107H3.9067L4.20494 10.0978L4.09455 10.4543L4.38689 10.2361L4.68781 10.4648L4.57481 10.0958L4.8757 9.87107H4.50601L4.3912 9.49616ZM6.37945 9.49616L6.26338 9.87107H5.89495L6.19318 10.0978L6.0828 10.4543L6.37513 10.2361L6.67606 10.4648L6.56305 10.0958L6.86395 9.87107H6.49426L6.37945 9.49616ZM8.36769 9.49616L8.25163 9.87107H7.8832L8.18143 10.0978L8.07104 10.4543L8.36338 10.2361L8.6643 10.4648L8.5513 10.0958L8.85219 9.87107H8.4825L8.36769 9.49616ZM10.3559 9.49616L10.2399 9.87107H9.87144L10.1697 10.0978L10.0593 10.4543L10.3516 10.2361L10.6526 10.4648L10.5396 10.0958L10.8404 9.87107H10.4708L10.3559 9.49616ZM12.3442 9.49616L12.2281 9.87107H11.8597L12.1579 10.0978L12.0475 10.4543L12.3399 10.2361L12.6408 10.4648L12.5278 10.0958L12.8287 9.87107H12.459L12.3442 9.49616ZM3.39708 10.7699L3.28102 11.1448H2.91258L3.21082 11.3715L3.10043 11.7281L3.39276 11.5099L3.69369 11.7386L3.58069 11.3695L3.88158 11.1448H3.51189L3.39708 10.7699ZM5.38532 10.7699L5.26926 11.1448H4.90083L5.19906 11.3715L5.08867 11.7281L5.38101 11.5099L5.68194 11.7386L5.56893 11.3695L5.86982 11.1448H5.50013L5.38532 10.7699ZM7.37357 10.7699L7.2575 11.1448H6.88907L7.18731 11.3715L7.07692 11.7281L7.36926 11.5099L7.67019 11.7386L7.55718 11.3695L7.85807 11.1448H7.48838L7.37357 10.7699ZM9.36182 10.7699L9.24575 11.1448H8.87732L9.17556 11.3715L9.06517 11.7281L9.35751 11.5099L9.65843 11.7386L9.54543 11.3695L9.84632 11.1448H9.47663L9.36182 10.7699ZM11.3501 10.7699L11.234 11.1448H10.8656L11.1638 11.3715L11.0534 11.7281L11.3457 11.5099L11.6467 11.7386L11.5337 11.3695L11.8346 11.1448H11.4649L11.3501 10.7699ZM2.40296 12.0437L2.28689 12.4186H1.91846L2.21669 12.6452L2.10631 13.0018L2.39864 12.7836L2.69957 13.0123L2.58657 12.6433L2.88746 12.4186H2.51777L2.40296 12.0437ZM4.3912 12.0437L4.27514 12.4186H3.9067L4.20494 12.6452L4.09455 13.0018L4.38689 12.7836L4.68781 13.0123L4.57481 12.6433L4.8757 12.4186H4.50601L4.3912 12.0437ZM6.37945 12.0437L6.26338 12.4186H5.89495L6.19318 12.6452L6.0828 13.0018L6.37513 12.7836L6.67606 13.0123L6.56305 12.6433L6.86395 12.4186H6.49426L6.37945 12.0437ZM8.36769 12.0437L8.25163 12.4186H7.8832L8.18143 12.6452L8.07104 13.0018L8.36338 12.7836L8.6643 13.0123L8.5513 12.6433L8.85219 12.4186H8.4825L8.36769 12.0437ZM10.3559 12.0437L10.2399 12.4186H9.87144L10.1697 12.6452L10.0593 13.0018L10.3516 12.7836L10.6526 13.0123L10.5396 12.6433L10.8404 12.4186H10.4708L10.3559 12.0437ZM12.3442 12.0437L12.2281 12.4186H11.8597L12.1579 12.6452L12.0475 13.0018L12.3399 12.7836L12.6408 13.0123L12.5278 12.6433L12.8287 12.4186H12.459L12.3442 12.0437Z" fill="white"/>
</svg>
