<svg width="59" height="68" viewBox="0 0 59 68" fill="none" xmlns="http://www.w3.org/2000/svg">
<g clip-path="url(#clip0_2_2676)">
<g clip-path="url(#clip1_2_2676)">
<circle cx="-0.377961" cy="30.7197" r="14.7459" fill="#0B8FAC"/>
</g>
<g clip-path="url(#clip2_2_2676)">
<circle cx="56.29" cy="30.0604" r="11.7684" transform="rotate(-180 56.29 30.0604)" fill="#0B8FAC"/>
</g>
<circle cx="12.0524" cy="18.4367" r="2.31587" fill="#BAC6C7"/>
<circle cx="46.1759" cy="42.2571" r="2.31587" fill="#BAC6C7"/>
<g clip-path="url(#clip3_2_2676)">
<circle cx="7.65687" cy="38.0528" r="7.56202" fill="#0B1F51"/>
</g>
<g clip-path="url(#clip4_2_2676)">
<circle cx="50.7601" cy="22.9277" r="7.56202" fill="#0B8FAC"/>
</g>
<g clip-path="url(#clip5_2_2676)">
<circle cx="15.2188" cy="53.1749" r="7.56202" fill="#BAC6C7"/>
</g>
<g clip-path="url(#clip6_2_2676)">
<circle cx="36.9592" cy="56.4841" r="7.56202" fill="#BAC6C7"/>
</g>
<g clip-path="url(#clip7_2_2676)">
<circle cx="22.2184" cy="60.1657" r="6.80923" transform="rotate(-90 22.2184 60.1657)" fill="#62A3BE"/>
</g>
<g clip-path="url(#clip8_2_2676)">
<circle cx="43.7653" cy="53.2707" r="7.56202" fill="#0B1F51"/>
</g>
<g clip-path="url(#clip9_2_2676)">
<path d="M45.2235 49.2091C42.3049 52.4302 42.6361 57.9207 45.8572 60.8393L49.248 60.8393L50.1933 59.8405L51.1858 58.7534L53.0291 56.4376L55.3449 52.4202L56.8573 48.9228C53.6362 46.0042 48.1422 45.988 45.2235 49.2091Z" fill="#0B8FAC"/>
<path d="M46.2394 60.7388C46.2394 54.9441 50.8344 50.152 56.386 50.152" stroke="#0B8FAC" stroke-width="0.472626"/>
<path d="M48.0194 60.7374C48.0194 56.039 51.3627 52.2301 55.4869 52.2301" stroke="#0B1F51" stroke-width="0.472626"/>
</g>
<g clip-path="url(#clip10_2_2676)">
<circle cx="50.4762" cy="7.80363" r="7.56202" transform="rotate(-180 50.4762 7.80363)" fill="#BAC6C7"/>
</g>
<g clip-path="url(#clip11_2_2676)">
<circle cx="50.4763" cy="0.240807" r="7.56202" transform="rotate(-180 50.4763 0.240807)" fill="#0B1F51"/>
</g>
<g clip-path="url(#clip12_2_2676)">
<path d="M21.9775 60.6439C25.6579 60.6439 28.6415 57.5122 28.6415 53.649C28.6415 52.3749 28.317 51.1804 27.75 50.1516L24.8605 49.5844L21.9775 48.3556L19.8034 47.0348C17.1905 47.9809 15.3135 50.5849 15.3135 53.649C15.3135 57.5122 18.2971 60.6439 21.9775 60.6439Z" fill="#BAC6C7"/>
</g>
<circle cx="33.9823" cy="64.5138" r="2.31587" fill="#BAC6C7"/>
<path d="M0.0948486 3.05423H14.7736C22.3759 3.05423 27.5774 9.56358 27.5774 15.9335C27.5774 17.2818 28.7207 17.9792 29.7267 17.9792C36.9834 17.9792 42.3476 24.9856 42.3476 31.0444C42.3476 35.4615 38.5979 43.9702 30.001 43.9702C28.9493 43.9702 27.7146 44.6211 27.7146 45.9695V67.9618" stroke="#0B8FAC" stroke-width="0.457281"/>
<path d="M0.186401 14.2612H14.8194C15.9489 14.2812 16.6485 15.0051 16.6485 16.0745C16.6485 23.5603 22.5017 29.0002 29.7268 29.1862C30.87 29.2156 31.3273 30.3021 31.3273 30.9995C31.3273 32.1619 30.2755 32.8128 29.7268 32.8128C22.456 32.8128 16.7857 38.8107 16.7857 45.971V65.3085" stroke="#0B8FAC" stroke-width="0.457281"/>
<path d="M0.0948486 12.446H14.8193C16.8771 12.446 18.4776 13.9338 18.4776 16.0261C18.4776 24.0781 25.1539 27.0682 29.7267 27.185C31.4186 27.2282 33.1563 28.7194 33.202 30.9976C33.2459 33.1829 31.3272 34.7173 29.7267 34.7173C24.971 34.7173 18.6147 38.2207 18.6147 45.9227V66.0505" stroke="#0B8FAC" stroke-width="0.457281"/>
<path d="M0.0948486 10.586H14.8193C17.2886 10.586 20.3067 12.4923 20.3067 16.026C20.3067 22.0239 25.2453 25.418 29.7267 25.418C33.1106 25.418 35.1349 28.3977 34.9854 30.951C34.7568 34.8566 31.9674 36.5769 29.7267 36.5769C24.6689 36.5769 20.4439 40.2036 20.4439 46.0155V66.6548" stroke="#0B8FAC" stroke-width="0.457281"/>
<path d="M0.140625 8.72601H14.8651C19.2093 8.72601 22.1359 12.4921 22.1359 16.0258C22.1359 20.1639 25.2454 23.558 29.7267 23.558C33.1106 23.558 36.9975 26.7197 36.906 30.9043C36.8206 34.8159 33.9337 38.2506 29.7267 38.4366C24.6737 38.6599 22.273 42.4352 22.273 46.0618V67.1676" stroke="#0B8FAC" stroke-width="0.457281"/>
<path d="M0.186401 6.77419H14.8194C19.6209 6.77419 24.1479 11.2377 24.0108 16.0268C23.8878 20.3198 27.669 21.6527 29.681 21.6527C34.5282 21.6527 38.802 26.0698 38.6895 30.9983C38.5968 35.058 36.0021 40.2974 29.681 40.2974C26.9831 40.2974 24.1022 42.2058 24.1022 45.9698L24.1897 67.5886" stroke="#0B8FAC" stroke-width="0.457281"/>
<path d="M0.140625 5.0072H14.7736C21.8158 5.0072 25.8398 10.9121 25.8398 16.1196C25.8398 18.3514 27.5858 19.8392 29.7267 19.8392C36.4488 19.8392 40.4728 25.8144 40.4728 30.9051C40.4728 36.3916 36.4488 42.1105 29.681 42.1105C26.8916 42.1105 25.9313 44.2028 25.9313 46.0161V67.7744" stroke="#0B8FAC" stroke-width="0.457281"/>
<ellipse cx="10.9778" cy="6.86801" rx="1.00602" ry="1.0229" fill="#0B1F51"/>
<ellipse cx="6.49686" cy="12.4479" rx="1.00602" ry="1.0229" fill="#0B1F51"/>
<ellipse cx="2.83866" cy="12.4479" rx="1.00602" ry="1.0229" fill="#0B1F51"/>
<ellipse cx="18.935" cy="12.4479" rx="1.00602" ry="1.0229" fill="#0B1F51"/>
<ellipse cx="36.3112" cy="22.1187" rx="1.00602" ry="1.0229" fill="#0B1F51"/>
<ellipse cx="35.0307" cy="30.9536" rx="1.00602" ry="1.0229" fill="#0B1F51"/>
<ellipse cx="33.75" cy="34.4853" rx="1.00602" ry="1.0229" fill="#0B1F51"/>
<ellipse cx="20.4892" cy="49.5511" rx="1.00602" ry="1.0229" fill="#0B1F51"/>
<ellipse cx="20.4892" cy="53.7349" rx="1.00602" ry="1.0229" fill="#0B1F51"/>
<path d="M0.182861 15.2185H15.3133M58.4232 15.2185H43.1037" stroke="#B7C4D4" stroke-width="0.18905"/>
<path d="M0.182861 30.39H15.2865M58.3286 30.39H43.1037" stroke="#B7C4D4" stroke-width="0.18905"/>
<path d="M0.939453 45.5614H18.5275M57.7619 45.5614H40.032" stroke="#B7C4D4" stroke-width="0.18905"/>
<path d="M9.54077 60.7329H49.2541" stroke="#B7C4D4" stroke-width="0.18905"/>
<path d="M15.3135 0L15.3135 64.5607" stroke="#B7C4D4" stroke-width="0.18905"/>
<path d="M43.104 0V64.7498" stroke="#B7C4D4" stroke-width="0.18905"/>
<path d="M29.3032 50.0989L29.3032 67.9641" stroke="#B7C4D4" stroke-width="0.18905"/>
<path d="M-0.0058588 0.0466461L15.3136 0.0342626M58.4644 -0.000618268L43.104 0.0117983" stroke="#B7C4D4" stroke-width="0.18905"/>
<path d="M15.3125 0.0952911L15.3125 36.7096L15.4025 38.3792L15.6945 40.1949C16.3683 43.0959 18.8635 46.4764 20.6137 47.5204C22.4331 48.6056 25.0612 50.2544 29.8232 50.0874C34.5851 49.9204 36.8314 48.0171 37.7972 47.5204C39.2797 46.7579 41.9527 43.722 42.694 40.2366C42.694 40.2366 43.0084 38.9218 43.0084 38.4627C43.0084 38.0035 43.0084 33.579 43.0084 33.579V26.8588V0.0952911" stroke="#B7C4D4" stroke-width="0.18905"/>
<path d="M0.0944656 0V37.6211L0.283678 41.4021L0.898092 45.5139C2.31597 52.0834 7.5661 59.7391 11.2486 62.1031C15.0769 64.5607 20.6066 68.2945 30.6263 67.9164C40.646 67.5383 45.3724 63.2279 47.4045 62.1031C50.5238 60.3765 56.148 53.5013 57.7077 45.6084C57.7077 45.6084 58.3694 42.6309 58.3694 41.5911C58.3694 40.5513 58.3694 30.5317 58.3694 30.5317V15.3131V0" stroke="#B7C4D4" stroke-width="0.18905"/>
</g>
<defs>
<clipPath id="clip0_2_2676">
<rect width="58.4285" height="67.9819" rx="9.40552" fill="white"/>
</clipPath>
<clipPath id="clip1_2_2676">
<rect width="15.3131" height="15.124" fill="white" transform="translate(0 15.2185)"/>
</clipPath>
<clipPath id="clip2_2_2676">
<rect width="15.3131" height="15.124" fill="white" transform="matrix(-1 0 0 -1 58.4166 45.5614)"/>
</clipPath>
<clipPath id="clip3_2_2676">
<rect width="15.3131" height="15.2186" fill="white" transform="translate(0 30.3015)"/>
</clipPath>
<clipPath id="clip4_2_2676">
<rect width="15.3131" height="15.2186" fill="white" transform="translate(43.1031 15.1759)"/>
</clipPath>
<clipPath id="clip5_2_2676">
<rect width="15.3131" height="15.2186" fill="white" transform="translate(0 45.613)"/>
</clipPath>
<clipPath id="clip6_2_2676">
<rect width="6.90034" height="12.0047" fill="white" transform="translate(29.3972 48.9219)"/>
</clipPath>
<clipPath id="clip7_2_2676">
<rect width="6.21342" height="13.7036" fill="white" transform="matrix(0 -1 1 0 15.4092 66.9752)"/>
</clipPath>
<clipPath id="clip8_2_2676">
<rect width="6.90034" height="15.2186" fill="white" transform="translate(36.2032 45.7083)"/>
</clipPath>
<clipPath id="clip9_2_2676">
<rect width="11.0431" height="16.7392" fill="white" transform="translate(50.5079 43.3753) rotate(42.1794)"/>
</clipPath>
<clipPath id="clip10_2_2676">
<rect width="14.8405" height="7.56202" fill="white" transform="matrix(-1 0 0 -1 58.0383 15.3654)"/>
</clipPath>
<clipPath id="clip11_2_2676">
<rect width="14.8405" height="7.56202" fill="white" transform="matrix(-1 0 0 -1 58.0383 7.80261)"/>
</clipPath>
<clipPath id="clip12_2_2676">
<rect width="13.9897" height="15.0295" fill="white" transform="translate(15.3135 45.7083)"/>
</clipPath>
</defs>
</svg>
