<svg width="21" height="19" viewBox="0 0 21 19" fill="none" xmlns="http://www.w3.org/2000/svg">
<g clip-path="url(#clip0_267_8943)">
<path d="M20.2801 5.17159L18.4866 6.78965C18.3038 6.95462 18.0081 6.95462 17.8252 6.78965L13.5069 2.89366C13.324 2.72869 13.324 2.46194 13.5069 2.29698L15.3004 0.67891C16.0279 0.0225575 17.2106 0.0225575 17.942 0.67891L20.2801 2.78836C21.0115 3.44471 21.0115 4.51173 20.2801 5.17159ZM11.9663 3.6869L1.75005 12.9039L0.925284 17.1684C0.812462 17.7441 1.36879 18.2425 2.00682 18.1442L6.73367 17.3966L16.9499 8.17958C17.1327 8.01461 17.1327 7.74786 16.9499 7.58289L12.6315 3.6869C12.4448 3.52193 12.1491 3.52193 11.9663 3.6869ZM5.73773 12.1142C5.52375 11.9211 5.52375 11.6123 5.73773 11.4192L11.729 6.01397C11.9429 5.82092 12.2853 5.82092 12.4993 6.01397C12.7132 6.20701 12.7132 6.51588 12.4993 6.70893L6.50803 12.1142C6.29406 12.3072 5.9517 12.3072 5.73773 12.1142ZM4.33329 15.066H6.20069V16.3401L3.69137 16.7367L2.48145 15.6451L2.92107 13.3813H4.33329V15.066Z" fill="white"/>
</g>
<defs>
<clipPath id="clip0_267_8943">
<rect width="19.9189" height="17.9707" fill="white" transform="translate(0.909668 0.184082)"/>
</clipPath>
</defs>
</svg>
