<svg width="32" height="27" viewBox="0 0 32 27" fill="none" xmlns="http://www.w3.org/2000/svg">
<path d="M15.8869 8.78765C17.2914 8.78765 18.6384 9.25055 19.6315 10.0745C20.6247 10.8985 21.1826 12.016 21.1826 13.1812C21.1826 14.3465 20.6247 15.464 19.6315 16.288C18.6384 17.1119 17.2914 17.5748 15.8869 17.5748C14.4824 17.5748 13.1355 17.1119 12.1423 16.288C11.1492 15.464 10.5913 14.3465 10.5913 13.1812C10.5913 12.016 11.1492 10.8985 12.1423 10.0745C13.1355 9.25055 14.4824 8.78765 15.8869 8.78765ZM15.8869 10.9845C15.1847 10.9845 14.5112 11.2159 14.0146 11.6279C13.5181 12.0399 13.2391 12.5986 13.2391 13.1812C13.2391 13.7639 13.5181 14.3226 14.0146 14.7346C14.5112 15.1466 15.1847 15.378 15.8869 15.378C16.5892 15.378 17.2627 15.1466 17.7592 14.7346C18.2558 14.3226 18.5348 13.7639 18.5348 13.1812C18.5348 12.5986 18.2558 12.0399 17.7592 11.6279C17.2627 11.2159 16.5892 10.9845 15.8869 10.9845ZM13.2391 24.1652C12.9081 24.1652 12.6301 23.9675 12.5771 23.7039L12.0873 20.7931C11.2532 20.5185 10.5383 20.1451 9.84987 19.7057L6.55331 20.8151C6.26205 20.903 5.90459 20.8151 5.74572 20.5735L3.09788 16.773C3.01685 16.6598 2.98829 16.526 3.01753 16.3967C3.04677 16.2673 3.13181 16.1512 3.25675 16.07L6.05022 14.2467L5.95755 13.1812L6.05022 12.0828L3.25675 10.2925C3.13181 10.2113 3.04677 10.0952 3.01753 9.96583C2.98829 9.83645 3.01685 9.70266 3.09788 9.58949L5.74572 5.78903C5.90459 5.54738 6.26205 5.44852 6.55331 5.54738L9.84987 6.64578C10.5383 6.2174 11.2532 5.84395 12.0873 5.56935L12.5771 2.65859C12.6301 2.39498 12.9081 2.19727 13.2391 2.19727H18.5348C18.8658 2.19727 19.1438 2.39498 19.1967 2.65859L19.6866 5.56935C20.5206 5.84395 21.2356 6.2174 21.924 6.64578L25.2206 5.54738C25.5118 5.44852 25.8693 5.54738 26.0282 5.78903L28.676 9.58949C28.8481 9.83113 28.7687 10.1277 28.5171 10.2925L25.7236 12.0828L25.8163 13.1812L25.7236 14.2796L28.5171 16.07C28.7687 16.2348 28.8481 16.5314 28.676 16.773L26.0282 20.5735C25.8693 20.8151 25.5118 20.914 25.2206 20.8151L21.924 19.7167C21.2356 20.1451 20.5206 20.5185 19.6866 20.7931L19.1967 23.7039C19.1438 23.9675 18.8658 24.1652 18.5348 24.1652H13.2391ZM14.894 4.39406L14.4041 7.26088C12.8154 7.53548 11.4121 8.23846 10.3927 9.21603L7.20203 8.0737L6.20909 9.50161L9.00256 11.2041C8.47299 12.4856 8.47299 13.8769 9.00256 15.1584L6.19585 16.8719L7.18879 18.2998L10.4059 17.1574C11.4253 18.124 12.8154 18.827 14.3909 19.0906L14.8808 21.9684H16.8931L17.383 19.1016C18.9584 18.827 20.3485 18.124 21.368 17.1574L24.5851 18.2998L25.578 16.8719L22.7713 15.1693C23.3009 13.8842 23.3009 12.4893 22.7713 11.2041L25.5648 9.50161L24.5718 8.0737L21.3812 9.21603C20.3409 8.21684 18.9297 7.53293 17.3697 7.27187L16.8799 4.39406H14.894Z" fill="#737791"/>
</svg>
