<svg width="15" height="13" viewBox="0 0 15 13" fill="none" xmlns="http://www.w3.org/2000/svg">
<path d="M8.625 0.921875C8.625 0.710531 8.52623 0.507842 8.35041 0.358399C8.1746 0.208956 7.93614 0.125 7.6875 0.125C7.43886 0.125 7.2004 0.208956 7.02459 0.358399C6.84877 0.507842 6.75 0.710531 6.75 0.921875V5.4375H1.4375C1.18886 5.4375 0.950403 5.52146 0.774587 5.6709C0.598772 5.82034 0.5 6.02303 0.5 6.23438C0.5 6.44572 0.598772 6.64841 0.774587 6.79785C0.950403 6.94729 1.18886 7.03125 1.4375 7.03125H6.75V11.5469C6.75 11.7582 6.84877 11.9609 7.02459 12.1104C7.2004 12.2598 7.43886 12.3438 7.6875 12.3438C7.93614 12.3438 8.1746 12.2598 8.35041 12.1104C8.52623 11.9609 8.625 11.7582 8.625 11.5469V7.03125H13.9375C14.1861 7.03125 14.4246 6.94729 14.6004 6.79785C14.7762 6.64841 14.875 6.44572 14.875 6.23438C14.875 6.02303 14.7762 5.82034 14.6004 5.6709C14.4246 5.52146 14.1861 5.4375 13.9375 5.4375H8.625V0.921875Z" fill="white"/>
</svg>
