<svg width="25" height="24" viewBox="0 0 25 24" fill="none" xmlns="http://www.w3.org/2000/svg">
<path d="M11.0835 4H4.0835C3.55306 4 3.04436 4.21071 2.66928 4.58579C2.29421 4.96086 2.0835 5.46957 2.0835 6V20C2.0835 20.5304 2.29421 21.0391 2.66928 21.4142C3.04436 21.7893 3.55306 22 4.0835 22H18.0835C18.6139 22 19.1226 21.7893 19.4977 21.4142C19.8728 21.0391 20.0835 20.5304 20.0835 20V13" stroke="#0B8FAC" stroke-width="2" stroke-linecap="round" stroke-linejoin="round"/>
<path d="M18.5835 2.49998C18.9813 2.10216 19.5209 1.87866 20.0835 1.87866C20.6461 1.87866 21.1857 2.10216 21.5835 2.49998C21.9813 2.89781 22.2048 3.43737 22.2048 3.99998C22.2048 4.56259 21.9813 5.10216 21.5835 5.49998L12.0835 15L8.0835 16L9.0835 12L18.5835 2.49998Z" stroke="#0B8FAC" stroke-width="2" stroke-linecap="round" stroke-linejoin="round"/>
</svg>
