<svg width="25" height="24" viewBox="0 0 25 24" fill="none" xmlns="http://www.w3.org/2000/svg">
<g id="trash-2 2">
<path id="Vector" d="M3.0835 6H5.0835H21.0835" stroke="#A30D11" stroke-width="2" stroke-linecap="round" stroke-linejoin="round"/>
<path id="Vector_2" d="M8.0835 6V4C8.0835 3.46957 8.29421 2.96086 8.66928 2.58579C9.04436 2.21071 9.55306 2 10.0835 2H14.0835C14.6139 2 15.1226 2.21071 15.4977 2.58579C15.8728 2.96086 16.0835 3.46957 16.0835 4V6M19.0835 6V20C19.0835 20.5304 18.8728 21.0391 18.4977 21.4142C18.1226 21.7893 17.6139 22 17.0835 22H7.0835C6.55306 22 6.04436 21.7893 5.66928 21.4142C5.29421 21.0391 5.0835 20.5304 5.0835 20V6H19.0835Z" stroke="#A30D11" stroke-width="2" stroke-linecap="round" stroke-linejoin="round"/>
<path id="Vector_3" d="M10.0835 11V17" stroke="#A30D11" stroke-width="2" stroke-linecap="round" stroke-linejoin="round"/>
<path id="Vector_4" d="M14.0835 11V17" stroke="#A30D11" stroke-width="2" stroke-linecap="round" stroke-linejoin="round"/>
</g>
</svg>
